<?xml version="1.0" encoding="UTF-8"?><svg id="Capa_2" xmlns="http://www.w3.org/2000/svg" viewBox="0 0 389.22 128.53"><defs><style>.cls-1{fill:#243d47;}</style></defs><g id="Capa_1-2"><g><path class="cls-1" d="M22.63,27.1v3.99H3.44V5.48H22.12v3.99H8.19v6.66h12.36v3.91H8.19v7.06h14.44Z"/><path class="cls-1" d="M38.63,29.75c-2.08-1.13-3.72-2.7-4.9-4.7-1.18-2-1.77-4.25-1.77-6.77s.6-4.77,1.79-6.76c1.19-2,2.83-3.57,4.92-4.7,2.08-1.13,4.42-1.7,7-1.7,2.1,0,4.01,.37,5.74,1.1,1.73,.73,3.19,1.79,4.39,3.18l-3.07,2.89c-1.85-2-4.13-3-6.84-3-1.75,0-3.33,.38-4.72,1.15-1.39,.77-2.47,1.83-3.25,3.2-.78,1.37-1.17,2.91-1.17,4.64s.39,3.28,1.17,4.64c.78,1.37,1.87,2.43,3.25,3.2,1.39,.77,2.96,1.15,4.72,1.15,2.71,0,4.99-1.01,6.84-3.04l3.07,2.93c-1.19,1.39-2.66,2.45-4.41,3.18-1.74,.73-3.66,1.1-5.76,1.1-2.58,0-4.92-.57-7-1.7Z"/><path class="cls-1" d="M71.12,29.75c-2.1-1.13-3.74-2.71-4.94-4.72s-1.79-4.26-1.79-6.75,.6-4.74,1.79-6.75c1.19-2.01,2.84-3.58,4.94-4.72,2.1-1.13,4.45-1.7,7.06-1.7s4.96,.57,7.06,1.7c2.1,1.13,3.74,2.7,4.94,4.7,1.19,2,1.79,4.25,1.79,6.76s-.6,4.77-1.79,6.77c-1.2,2-2.84,3.56-4.94,4.7-2.1,1.13-4.45,1.7-7.06,1.7s-4.96-.57-7.06-1.7Zm11.66-3.62c1.37-.77,2.44-1.84,3.22-3.22,.78-1.38,1.17-2.92,1.17-4.63s-.39-3.25-1.17-4.62c-.78-1.38-1.85-2.45-3.22-3.22-1.37-.77-2.9-1.15-4.61-1.15s-3.24,.38-4.61,1.15c-1.37,.77-2.44,1.84-3.22,3.22s-1.17,2.92-1.17,4.62,.39,3.25,1.17,4.63c.78,1.38,1.85,2.45,3.22,3.22s2.9,1.15,4.61,1.15,3.24-.38,4.61-1.15Z"/><path class="cls-1" d="M105.07,30.61c-1.84-.56-3.3-1.3-4.37-2.23l1.65-3.69c1.05,.83,2.33,1.51,3.86,2.03,1.52,.52,3.05,.79,4.59,.79,1.9,0,3.32-.3,4.26-.91s1.41-1.41,1.41-2.41c0-.73-.26-1.33-.79-1.81-.53-.48-1.19-.85-1.99-1.12-.8-.27-1.9-.57-3.29-.92-1.95-.46-3.53-.93-4.74-1.39-1.21-.46-2.24-1.19-3.11-2.18-.87-.99-1.3-2.32-1.3-4,0-1.41,.38-2.7,1.15-3.86,.77-1.16,1.93-2.08,3.47-2.76,1.55-.68,3.44-1.02,5.69-1.02,1.56,0,3.1,.2,4.61,.59,1.51,.39,2.82,.95,3.91,1.68l-1.5,3.69c-1.12-.66-2.29-1.16-3.51-1.5-1.22-.34-2.4-.51-3.55-.51-1.88,0-3.27,.32-4.19,.95-.91,.63-1.37,1.47-1.37,2.52,0,.73,.26,1.33,.79,1.79,.52,.46,1.19,.83,1.99,1.1s1.9,.57,3.29,.91c1.9,.44,3.46,.9,4.68,1.37,1.22,.47,2.26,1.2,3.13,2.18s1.3,2.29,1.3,3.95c0,1.41-.38,2.69-1.15,3.84s-1.93,2.06-3.49,2.74-3.46,1.02-5.7,1.02c-1.97,0-3.88-.28-5.72-.84Z"/><path class="cls-1" d="M131.71,5.48h4.75V31.08h-4.75V5.48Z"/><path class="cls-1" d="M151.44,30.61c-1.84-.56-3.3-1.3-4.37-2.23l1.64-3.69c1.05,.83,2.33,1.51,3.86,2.03,1.52,.52,3.05,.79,4.59,.79,1.9,0,3.32-.3,4.26-.91,.94-.61,1.41-1.41,1.41-2.41,0-.73-.26-1.33-.79-1.81-.52-.48-1.19-.85-1.99-1.12-.8-.27-1.9-.57-3.29-.92-1.95-.46-3.53-.93-4.73-1.39-1.21-.46-2.24-1.19-3.11-2.18-.87-.99-1.3-2.32-1.3-4,0-1.41,.38-2.7,1.15-3.86,.77-1.16,1.93-2.08,3.47-2.76,1.55-.68,3.44-1.02,5.69-1.02,1.56,0,3.1,.2,4.61,.59,1.51,.39,2.82,.95,3.91,1.68l-1.5,3.69c-1.12-.66-2.29-1.16-3.51-1.5-1.22-.34-2.4-.51-3.55-.51-1.88,0-3.27,.32-4.19,.95-.91,.63-1.37,1.47-1.37,2.52,0,.73,.26,1.33,.79,1.79,.52,.46,1.19,.83,1.99,1.1,.8,.27,1.9,.57,3.29,.91,1.9,.44,3.46,.9,4.68,1.37,1.22,.47,2.26,1.2,3.13,2.18s1.3,2.29,1.3,3.95c0,1.41-.38,2.69-1.15,3.84s-1.93,2.06-3.49,2.74c-1.56,.68-3.46,1.02-5.71,1.02-1.97,0-3.88-.28-5.72-.84Z"/><path class="cls-1" d="M183.27,9.51h-8.48V5.48h21.72v4.02h-8.48V31.08h-4.75V9.51Z"/><path class="cls-1" d="M225.14,27.1v3.99h-19.2V5.48h18.69v3.99h-13.93v6.66h12.36v3.91h-12.36v7.06h14.45Z"/><path class="cls-1" d="M259.81,31.08l-.04-16.97-8.41,14.04h-2.12l-8.41-13.82V31.08h-4.53V5.48h3.91l10.17,16.97,9.98-16.97h3.91l.04,25.6h-4.5Z"/><path class="cls-1" d="M293.67,25.16h-12.8l-2.52,5.92h-4.9l11.52-25.6h4.68l11.55,25.6h-4.97l-2.56-5.92Zm-1.57-3.73l-4.83-11.19-4.79,11.19h9.62Z"/><path class="cls-1" d="M326.25,5.48h11.19c2.73,0,5.16,.53,7.28,1.59s3.77,2.56,4.94,4.5c1.17,1.94,1.75,4.17,1.75,6.71s-.58,4.77-1.75,6.71c-1.17,1.94-2.82,3.44-4.94,4.5-2.12,1.06-4.55,1.59-7.28,1.59h-11.19V5.48Zm10.97,21.58c1.88,0,3.53-.36,4.96-1.08,1.43-.72,2.52-1.74,3.29-3.07,.77-1.33,1.15-2.87,1.15-4.63s-.38-3.3-1.15-4.62-1.87-2.35-3.29-3.07c-1.43-.72-3.08-1.08-4.96-1.08h-6.22V27.06h6.22Z"/><path class="cls-1" d="M381.5,27.1v3.99h-19.2V5.48h18.69v3.99h-13.93v6.66h12.36v3.91h-12.36v7.06h14.45Z"/><path class="cls-1" d="M5.65,74.49c-1.84-.56-3.3-1.3-4.37-2.23l1.65-3.69c1.05,.83,2.33,1.51,3.86,2.03,1.52,.52,3.05,.79,4.59,.79,1.9,0,3.32-.3,4.26-.91,.94-.61,1.41-1.41,1.41-2.41,0-.73-.26-1.33-.79-1.81-.52-.47-1.19-.85-1.99-1.12-.8-.27-1.9-.57-3.29-.91-1.95-.46-3.53-.93-4.74-1.39-1.21-.46-2.24-1.19-3.11-2.18-.87-.99-1.3-2.32-1.3-4,0-1.41,.38-2.7,1.15-3.86s1.93-2.08,3.47-2.76,3.44-1.02,5.69-1.02c1.56,0,3.1,.2,4.61,.58,1.51,.39,2.82,.95,3.91,1.68l-1.5,3.69c-1.12-.66-2.29-1.16-3.51-1.5-1.22-.34-2.4-.51-3.55-.51-1.88,0-3.27,.32-4.19,.95-.92,.63-1.37,1.47-1.37,2.52,0,.73,.26,1.33,.79,1.79,.52,.46,1.19,.83,1.99,1.1s1.9,.57,3.29,.91c1.9,.44,3.46,.9,4.68,1.37,1.22,.48,2.26,1.2,3.13,2.18,.86,.98,1.3,2.29,1.3,3.95,0,1.41-.38,2.69-1.15,3.84-.77,1.15-1.93,2.06-3.49,2.74-1.56,.68-3.46,1.02-5.7,1.02-1.97,0-3.88-.28-5.72-.84Z"/><path class="cls-1" d="M35.03,72.35c-1.97-1.99-2.96-4.83-2.96-8.54v-14.44h4.75v14.26c0,5.02,2.17,7.53,6.51,7.53s6.47-2.51,6.47-7.53v-14.26h4.68v14.44c0,3.71-.98,6.55-2.94,8.54s-4.71,2.98-8.25,2.98-6.29-.99-8.26-2.98Z"/><path class="cls-1" d="M88.49,63.97c.83,1.08,1.24,2.43,1.24,4.04,0,2.22-.85,3.93-2.56,5.14-1.71,1.21-4.19,1.81-7.46,1.81h-12.73v-25.6h11.99c3.02,0,5.35,.59,6.98,1.77s2.45,2.81,2.45,4.88c0,1.27-.29,2.39-.88,3.36-.58,.97-1.39,1.73-2.41,2.27,1.41,.46,2.54,1.24,3.36,2.32Zm-16.75-10.88v7.06h6.73c1.66,0,2.93-.3,3.82-.9,.89-.6,1.33-1.47,1.33-2.61s-.45-2.05-1.33-2.65c-.89-.6-2.16-.9-3.82-.9h-6.73Zm13.2,14.44c0-2.46-1.84-3.69-5.52-3.69h-7.68v7.39h7.68c3.68,0,5.52-1.23,5.52-3.69Z"/><path class="cls-1" d="M124.07,49.37l-11.15,25.6h-4.68l-11.19-25.6h5.16l8.52,19.75,8.59-19.75h4.75Z"/><path class="cls-1" d="M152.37,70.98v3.99h-19.2v-25.6h18.69v3.99h-13.93v6.66h12.36v3.91h-12.36v7.06h14.44Z"/><path class="cls-1" d="M186.27,49.37v25.6h-3.91l-14.12-17.33v17.33h-4.72v-25.6h3.91l14.12,17.33v-17.33h4.72Z"/><path class="cls-1" d="M203.84,73.63c-2.08-1.13-3.72-2.7-4.9-4.7-1.18-2-1.77-4.25-1.77-6.77s.6-4.77,1.79-6.76,2.83-3.57,4.92-4.7c2.08-1.13,4.42-1.7,7-1.7,2.1,0,4.01,.37,5.74,1.1,1.73,.73,3.19,1.79,4.39,3.18l-3.07,2.89c-1.85-2-4.13-3-6.84-3-1.75,0-3.33,.38-4.72,1.15-1.39,.77-2.47,1.83-3.25,3.2-.78,1.37-1.17,2.91-1.17,4.64s.39,3.28,1.17,4.64c.78,1.37,1.86,2.43,3.25,3.2,1.39,.77,2.96,1.15,4.72,1.15,2.71,0,4.99-1.01,6.84-3.04l3.07,2.92c-1.2,1.39-2.66,2.45-4.41,3.18-1.74,.73-3.66,1.1-5.76,1.1-2.58,0-4.92-.57-7-1.7Z"/><path class="cls-1" d="M231.43,49.37h4.75v25.6h-4.75v-25.6Z"/><path class="cls-1" d="M253.85,73.63c-2.1-1.13-3.74-2.71-4.94-4.72-1.2-2.01-1.79-4.26-1.79-6.75s.6-4.74,1.79-6.75c1.19-2.01,2.84-3.58,4.94-4.72,2.1-1.13,4.45-1.7,7.06-1.7s4.96,.57,7.06,1.7c2.1,1.13,3.74,2.7,4.94,4.7s1.79,4.25,1.79,6.76-.6,4.77-1.79,6.77-2.84,3.56-4.94,4.7c-2.1,1.13-4.45,1.7-7.06,1.7s-4.96-.57-7.06-1.7Zm11.67-3.62c1.36-.77,2.44-1.84,3.22-3.22,.78-1.38,1.17-2.92,1.17-4.63s-.39-3.25-1.17-4.62-1.85-2.45-3.22-3.22c-1.37-.77-2.9-1.15-4.61-1.15s-3.24,.38-4.61,1.15c-1.37,.77-2.44,1.84-3.22,3.22-.78,1.38-1.17,2.92-1.17,4.62s.39,3.25,1.17,4.63c.78,1.38,1.85,2.45,3.22,3.22,1.37,.77,2.9,1.15,4.61,1.15s3.24-.38,4.61-1.15Z"/><path class="cls-1" d="M308.33,49.37v25.6h-3.91l-14.12-17.33v17.33h-4.72v-25.6h3.91l14.11,17.33v-17.33h4.72Z"/><path class="cls-1" d="M340.25,70.98v3.99h-19.2v-25.6h18.69v3.99h-13.93v6.66h12.36v3.91h-12.36v7.06h14.44Z"/><path class="cls-1" d="M353.62,74.49c-1.84-.56-3.3-1.3-4.37-2.23l1.64-3.69c1.05,.83,2.33,1.51,3.86,2.03,1.52,.52,3.05,.79,4.59,.79,1.9,0,3.32-.3,4.26-.91,.94-.61,1.41-1.41,1.41-2.41,0-.73-.26-1.33-.79-1.81-.52-.47-1.19-.85-1.99-1.12-.8-.27-1.9-.57-3.29-.91-1.95-.46-3.53-.93-4.73-1.39-1.21-.46-2.24-1.19-3.11-2.18s-1.3-2.32-1.3-4c0-1.41,.38-2.7,1.15-3.86,.77-1.16,1.93-2.08,3.47-2.76,1.55-.68,3.44-1.02,5.69-1.02,1.56,0,3.1,.2,4.61,.58,1.51,.39,2.82,.95,3.91,1.68l-1.5,3.69c-1.12-.66-2.29-1.16-3.51-1.5-1.22-.34-2.4-.51-3.55-.51-1.88,0-3.27,.32-4.19,.95s-1.37,1.47-1.37,2.52c0,.73,.26,1.33,.79,1.79,.52,.46,1.19,.83,1.99,1.1,.8,.27,1.9,.57,3.29,.91,1.9,.44,3.46,.9,4.68,1.37s2.26,1.2,3.13,2.18c.87,.98,1.3,2.29,1.3,3.95,0,1.41-.38,2.69-1.15,3.84s-1.93,2.06-3.49,2.74c-1.56,.68-3.46,1.02-5.71,1.02-1.97,0-3.88-.28-5.72-.84Z"/><path class="cls-1" d="M3.44,93.25H14.63c2.73,0,5.16,.53,7.28,1.59,2.12,1.06,3.77,2.56,4.94,4.5,1.17,1.94,1.76,4.17,1.76,6.71s-.59,4.77-1.76,6.71c-1.17,1.94-2.82,3.44-4.94,4.5-2.12,1.06-4.55,1.59-7.28,1.59H3.44v-25.6Zm10.97,21.57c1.88,0,3.53-.36,4.96-1.08,1.43-.72,2.52-1.74,3.29-3.07,.77-1.33,1.15-2.87,1.15-4.63s-.38-3.3-1.15-4.62c-.77-1.33-1.86-2.35-3.29-3.07-1.43-.72-3.08-1.08-4.96-1.08h-6.22v17.55h6.22Z"/><path class="cls-1" d="M58.69,114.86v3.99h-19.2v-25.6h18.69v3.99h-13.93v6.66h12.36v3.91h-12.36v7.06h14.44Z"/><path class="cls-1" d="M69.84,93.25h4.75v21.57h13.38v4.02h-18.14v-25.6Z"/><path class="cls-1" d="M132.74,114.86v3.99h-19.2v-25.6h18.69v3.99h-13.93v6.66h12.36v3.91h-12.36v7.06h14.45Z"/><path class="cls-1" d="M146.1,118.37c-1.84-.56-3.3-1.3-4.37-2.23l1.65-3.69c1.05,.83,2.33,1.51,3.86,2.03,1.52,.52,3.05,.79,4.59,.79,1.9,0,3.32-.3,4.26-.91,.94-.61,1.41-1.41,1.41-2.41,0-.73-.26-1.33-.79-1.81-.52-.47-1.19-.85-1.99-1.12-.8-.27-1.9-.57-3.29-.91-1.95-.46-3.53-.93-4.74-1.39-1.21-.46-2.24-1.19-3.11-2.18-.87-.99-1.3-2.32-1.3-4,0-1.41,.38-2.7,1.15-3.86s1.93-2.08,3.47-2.76,3.44-1.02,5.69-1.02c1.56,0,3.1,.2,4.61,.58,1.51,.39,2.82,.95,3.91,1.68l-1.5,3.69c-1.12-.66-2.29-1.16-3.51-1.5-1.22-.34-2.4-.51-3.55-.51-1.88,0-3.27,.32-4.19,.95-.92,.63-1.37,1.47-1.37,2.52,0,.73,.26,1.33,.79,1.79,.52,.46,1.19,.83,1.99,1.1s1.9,.57,3.29,.91c1.9,.44,3.46,.9,4.68,1.37,1.22,.48,2.26,1.2,3.13,2.18,.86,.98,1.3,2.29,1.3,3.95,0,1.41-.38,2.69-1.15,3.84-.77,1.15-1.93,2.06-3.49,2.74-1.56,.68-3.46,1.02-5.7,1.02-1.97,0-3.88-.28-5.72-.84Z"/><path class="cls-1" d="M177.93,97.27h-8.48v-4.02h21.72v4.02h-8.48v21.57h-4.75v-21.57Z"/><path class="cls-1" d="M217.21,112.92h-12.8l-2.52,5.92h-4.9l11.52-25.6h4.68l11.55,25.6h-4.97l-2.56-5.92Zm-1.57-3.73l-4.83-11.19-4.79,11.19h9.62Z"/><path class="cls-1" d="M233.85,93.25h11.19c2.73,0,5.16,.53,7.28,1.59,2.12,1.06,3.77,2.56,4.94,4.5,1.17,1.94,1.76,4.17,1.76,6.71s-.59,4.77-1.76,6.71c-1.17,1.94-2.82,3.44-4.94,4.5-2.12,1.06-4.55,1.59-7.28,1.59h-11.19v-25.6Zm10.97,21.57c1.88,0,3.53-.36,4.96-1.08,1.43-.72,2.52-1.74,3.29-3.07,.77-1.33,1.15-2.87,1.15-4.63s-.38-3.3-1.15-4.62c-.77-1.33-1.86-2.35-3.29-3.07-1.43-.72-3.08-1.08-4.96-1.08h-6.22v17.55h6.22Z"/><path class="cls-1" d="M274.8,117.51c-2.1-1.13-3.74-2.71-4.94-4.72-1.2-2.01-1.79-4.26-1.79-6.75s.6-4.74,1.79-6.75c1.19-2.01,2.84-3.58,4.94-4.72,2.1-1.13,4.45-1.7,7.06-1.7s4.96,.57,7.06,1.7c2.1,1.13,3.74,2.7,4.94,4.7,1.19,2,1.79,4.25,1.79,6.76s-.6,4.77-1.79,6.77c-1.2,2-2.84,3.56-4.94,4.7-2.1,1.13-4.45,1.7-7.06,1.7s-4.96-.57-7.06-1.7Zm11.67-3.62c1.37-.77,2.44-1.84,3.22-3.22,.78-1.38,1.17-2.92,1.17-4.63s-.39-3.25-1.17-4.62-1.85-2.45-3.22-3.22c-1.37-.77-2.9-1.15-4.61-1.15s-3.24,.38-4.61,1.15c-1.37,.77-2.44,1.84-3.22,3.22-.78,1.38-1.17,2.92-1.17,4.62s.39,3.25,1.17,4.63c.78,1.38,1.85,2.45,3.22,3.22,1.37,.77,2.9,1.15,4.61,1.15s3.24-.38,4.61-1.15Z"/></g></g></svg>