<?xml version="1.0" encoding="UTF-8"?><svg id="Capa_2" xmlns="http://www.w3.org/2000/svg" xmlns:xlink="http://www.w3.org/1999/xlink" viewBox="0 0 612.71 248.87"><defs><style>.cls-1{fill:none;}.cls-2{clip-path:url(#clippath);}.cls-3{fill:#fdcb5b;}.cls-4{fill:#e67962;}.cls-5,.cls-6{fill:#243d48;}.cls-7{fill:#243d47;}.cls-8{fill:#6bc5d3;}.cls-6{stroke:#243d48;stroke-miterlimit:10;}</style><clipPath id="clippath"><circle class="cls-1" cx="124.44" cy="124.44" r="124.44"/></clipPath></defs><g id="Capa_1-2"><g><g class="cls-2"><g><path class="cls-8" d="M55,401.35c.28,11.26-.58,22.54-2.55,33.52-1.92,10.71-4.91,21.27-8.9,31.38-3.92,9.93-8.83,19.54-14.61,28.56-5.72,8.93-12.33,17.36-19.66,25.05-7.32,7.69-15.42,14.71-24.06,20.86-8.72,6.21-18.08,11.59-27.81,15.99-9.91,4.48-20.31,7.99-30.91,10.43-10.88,2.51-22.1,3.92-33.36,4.19-11.26,.28-22.54-.58-33.52-2.55-10.71-1.92-21.27-4.91-31.38-8.9-9.93-3.92-19.54-8.83-28.56-14.61-8.93-5.72-17.36-12.33-25.05-19.66-7.69-7.32-14.71-15.42-20.86-24.06-6.21-8.72-11.59-18.08-15.99-27.81-4.48-9.91-7.99-20.31-10.43-30.91-2.51-10.88-3.92-22.1-4.19-33.36-.28-11.26,.58-22.54,2.55-33.52,1.92-10.71,4.91-21.27,8.9-31.38,3.92-9.93,8.83-19.54,14.61-28.56,5.72-8.93,12.33-17.36,19.66-25.05,7.32-7.69,15.42-14.71,24.06-20.86,8.72-6.21,18.08-11.59,27.81-15.99,9.91-4.48,20.31-7.99,30.91-10.43,10.88-2.51,22.1-3.92,33.36-4.19s22.54,.58,33.52,2.55c10.71,1.92,21.27,4.91,31.38,8.9,9.93,3.92,19.54,8.83,28.56,14.61,8.93,5.72,17.36,12.33,25.05,19.66,7.69,7.32,14.71,15.42,20.86,24.06,6.21,8.72,11.59,18.08,15.99,27.81,4.48,9.91,7.99,20.31,10.43,30.91,2.51,10.88,3.92,22.1,4.19,33.36Zm-331.44,8.13c2.24,91.27,78.31,163.7,169.58,161.46,91.27-2.24,163.7-78.31,161.46-169.58-2.24-91.27-78.31-163.7-169.58-161.46-91.27,2.24-163.7,78.31-161.46,169.58Z"/><g><path class="cls-5" d="M120.89,62.51c.32,13.11-1.93,25.89-6.7,37.99-4.61,11.68-11.36,22.24-20.06,31.38-8.7,9.14-18.91,16.4-30.36,21.57-11.85,5.36-24.5,8.24-37.62,8.56-13.11,.32-25.89-1.93-37.99-6.7-11.68-4.61-22.24-11.36-31.38-20.06-9.14-8.7-16.4-18.91-21.57-30.36-5.36-11.85-8.24-24.5-8.56-37.62-.32-13.11,1.93-25.89,6.7-37.99,4.61-11.68,11.36-22.24,20.06-31.38,8.7-9.14,18.91-16.4,30.36-21.57,11.85-5.36,24.5-8.24,37.62-8.56,13.11-.32,25.89,1.93,37.99,6.7,11.68,4.61,22.24,11.36,31.38,20.06,9.14,8.7,16.4,18.91,21.57,30.36,5.36,11.85,8.24,24.5,8.56,37.62Zm-193.83,4.76c1.31,53.33,45.76,95.64,99.08,94.34,53.33-1.31,95.64-45.76,94.34-99.08C119.17,9.2,74.72-33.12,21.4-31.81c-53.33,1.31-95.64,45.76-94.34,99.08Z"/><path class="cls-5" d="M23.7,162.62c-12.33,0-24.34-2.28-35.75-6.77-11.75-4.63-22.37-11.42-31.57-20.17-9.19-8.75-16.49-19.03-21.7-30.54-5.39-11.92-8.29-24.65-8.61-37.84-.32-13.19,1.95-26.05,6.74-38.21,4.63-11.75,11.42-22.37,20.17-31.56,8.75-9.19,19.03-16.49,30.54-21.7,11.92-5.39,24.65-8.29,37.84-8.61,13.19-.32,26.04,1.95,38.21,6.74,11.75,4.63,22.37,11.42,31.56,20.17,9.19,8.75,16.49,19.02,21.7,30.54,5.39,11.92,8.29,24.65,8.61,37.84h0c.32,13.19-1.95,26.04-6.74,38.21-4.63,11.75-11.42,22.37-20.17,31.57-8.75,9.19-19.03,16.49-30.54,21.7-11.92,5.39-24.65,8.29-37.84,8.61-.82,.02-1.65,.03-2.47,.03Zm.1-193.89c-.8,0-1.59,.01-2.39,.03C-4.23-30.61-28.11-20.01-45.84-1.38c-17.73,18.62-27.15,43-26.52,68.64,1.28,52.21,44.17,93.8,96.1,93.81,.8,0,1.59,0,2.39-.03,53.01-1.3,95.08-45.49,93.78-98.5C118.63,10.33,75.74-31.27,23.81-31.27Z"/></g><g><path class="cls-5" d="M388.74,105.88c.41,16.86-2.49,33.29-8.62,48.85-2.95,7.48-6.65,14.71-10.99,21.49-4.31,6.72-9.28,13.07-14.8,18.86-5.51,5.79-11.6,11.07-18.11,15.7-6.57,4.67-13.61,8.72-20.93,12.03-15.24,6.89-31.51,10.59-48.37,11.01-16.86,.41-33.29-2.49-48.85-8.62-7.48-2.95-14.71-6.65-21.49-10.99-6.72-4.3-13.07-9.28-18.86-14.79-5.79-5.51-11.07-11.6-15.7-18.11-4.67-6.57-8.72-13.61-12.03-20.93-6.89-15.24-10.59-31.51-11.01-48.37-.41-16.86,2.49-33.29,8.62-48.85,2.95-7.48,6.65-14.71,10.99-21.49,4.31-6.72,9.28-13.07,14.8-18.86,5.51-5.79,11.6-11.07,18.11-15.7,6.57-4.67,13.61-8.72,20.93-12.03,15.24-6.89,31.51-10.59,48.37-11.01,16.86-.41,33.29,2.49,48.85,8.62,7.48,2.95,14.71,6.65,21.49,10.99,6.72,4.31,13.07,9.28,18.86,14.8,5.79,5.51,11.07,11.6,15.7,18.11,4.67,6.57,8.72,13.61,12.03,20.93,6.89,15.24,10.59,31.51,11.01,48.37Zm-249.35,6.12c1.68,68.63,58.89,123.1,127.52,121.41,68.63-1.68,123.1-58.89,121.41-127.52-1.68-68.63-58.89-123.1-127.52-121.41-68.63,1.68-123.1,58.89-121.41,127.52Z"/><path class="cls-5" d="M263.76,234.43c-15.82,0-31.24-2.92-45.9-8.7-7.51-2.96-14.78-6.68-21.59-11.04-6.75-4.32-13.12-9.32-18.94-14.86-5.82-5.54-11.12-11.66-15.77-18.19-4.7-6.59-8.76-13.67-12.09-21.03-6.92-15.31-10.64-31.66-11.06-48.59-.42-16.94,2.5-33.45,8.66-49.07,2.96-7.51,6.67-14.77,11.04-21.59,4.32-6.75,9.32-13.12,14.86-18.94,5.54-5.82,11.66-11.12,18.19-15.77,6.6-4.7,13.67-8.77,21.03-12.09,15.31-6.92,31.65-10.64,48.59-11.06,16.93-.42,33.45,2.5,49.07,8.66,7.51,2.96,14.78,6.68,21.59,11.04,6.76,4.33,13.13,9.33,18.94,14.86,5.82,5.54,11.12,11.66,15.77,18.19,4.7,6.59,8.76,13.67,12.09,21.03,6.92,15.31,10.64,31.66,11.06,48.59h0c.42,16.94-2.5,33.45-8.66,49.07-2.96,7.51-6.68,14.77-11.04,21.59-4.32,6.75-9.32,13.12-14.86,18.94-5.54,5.82-11.66,11.12-18.19,15.77-6.6,4.69-13.67,8.76-21.03,12.09-15.31,6.92-31.65,10.64-48.59,11.06-1.06,.03-2.12,.04-3.18,.04Zm.14-249.42c-1.03,0-2.05,.01-3.08,.04-33.04,.81-63.82,14.48-86.68,38.48-22.85,24-34.99,55.42-34.18,88.46h0c.81,33.04,14.48,63.83,38.48,86.68,24,22.85,55.45,35.02,88.46,34.18,33.04-.81,63.82-14.48,86.68-38.48,22.85-24,34.99-55.42,34.18-88.46-1.65-67.28-56.92-120.9-123.86-120.9Z"/></g><circle class="cls-8" cx="295.25" cy="229.67" r="3.33" transform="translate(9.73 471.33) rotate(-78.12)"/><g><path class="cls-3" d="M300.9,248.27c-3.19-13.83-7.76-27.39-13.61-40.32-2.38-5.26-5.03-10.41-7.83-15.48-.31,.09-.62,.19-.93,.27,16.35,29.44,26.04,63.13,26.92,99.07,2.92,118.85-91.4,217.91-210.25,220.83-118.85,2.92-217.91-91.4-220.83-210.25-2.92-118.85,91.4-217.91,210.25-220.83,40.52-.99,78.73,9.32,111.62,28.04,.09-.32,.18-.65,.28-.97-8.78-4.97-17.89-9.36-27.24-13.05-13.2-5.2-26.97-9.11-40.94-11.62-14.33-2.57-29.04-3.69-43.73-3.33-14.69,.36-29.33,2.2-43.51,5.47-13.83,3.19-27.39,7.76-40.32,13.61-12.69,5.74-24.9,12.76-36.28,20.86-11.27,8.02-21.83,17.18-31.39,27.22-9.55,10.04-18.18,21.03-25.64,32.68-7.53,11.76-13.94,24.3-19.05,37.26-5.2,13.2-9.11,26.97-11.62,40.94-2.57,14.33-3.69,29.04-3.33,43.73,.36,14.69,2.2,29.33,5.47,43.52,3.18,13.83,7.76,27.39,13.61,40.32,5.74,12.69,12.76,24.9,20.86,36.28,8.02,11.27,17.18,21.83,27.22,31.39,10.04,9.55,21.03,18.18,32.68,25.64,11.76,7.53,24.3,13.94,37.26,19.05,13.2,5.2,26.97,9.11,40.94,11.62,14.33,2.57,29.04,3.69,43.73,3.33,14.69-.36,29.33-2.2,43.51-5.47,13.83-3.19,27.39-7.76,40.32-13.61,12.69-5.74,24.9-12.76,36.28-20.86,11.27-8.02,21.83-17.18,31.39-27.22,9.55-10.04,18.18-21.03,25.64-32.68,7.53-11.76,13.94-24.3,19.05-37.26,5.2-13.2,9.11-26.97,11.62-40.94,2.57-14.33,3.69-29.04,3.33-43.73-.36-14.69-2.2-29.33-5.47-43.52Z"/><path class="cls-3" d="M89.86,514.2c-12.94,0-25.85-1.14-38.47-3.4-14-2.51-27.81-6.43-41.05-11.65-13-5.13-25.57-11.56-37.36-19.1-11.68-7.48-22.71-16.13-32.77-25.71-10.07-9.58-19.25-20.17-27.29-31.47-8.12-11.41-15.16-23.65-20.92-36.37-5.86-12.96-10.45-26.57-13.65-40.43-3.28-14.22-5.12-28.9-5.48-43.63-.36-14.72,.76-29.47,3.34-43.85,2.51-14.01,6.43-27.82,11.65-41.05,5.12-12.99,11.55-25.56,19.1-37.35,7.48-11.69,16.13-22.71,25.71-32.77,9.58-10.06,20.17-19.24,31.47-27.29,11.41-8.12,23.65-15.16,36.37-20.91,12.96-5.86,26.56-10.45,40.43-13.65,14.23-3.28,28.91-5.12,43.63-5.48,14.73-.36,29.47,.76,43.85,3.34,14.01,2.51,27.82,6.43,41.05,11.65,9.24,3.64,18.43,8.04,27.32,13.08l.4,.22-.13,.44c-.07,.22-.13,.44-.19,.67l-.28,1-.63-.36c-33.82-19.26-72.31-28.92-111.32-27.97-118.53,2.91-212.6,101.71-209.69,220.24,2.86,116.74,98.76,209.76,214.89,209.76,1.78,0,3.56-.02,5.35-.07,57.33-1.41,110.74-25.12,150.39-66.76,39.65-41.64,60.71-96.15,59.3-153.48-.85-34.55-10.13-68.71-26.85-98.81l-.35-.63,2.06-.59,.22,.4c3.07,5.56,5.64,10.63,7.86,15.53,5.86,12.96,10.45,26.56,13.65,40.43h0c3.28,14.23,5.12,28.91,5.48,43.63,.36,14.72-.76,29.48-3.34,43.85-2.51,14.01-6.43,27.82-11.65,41.05-5.12,12.99-11.55,25.56-19.1,37.36-7.48,11.68-16.13,22.7-25.71,32.77-9.58,10.06-20.17,19.24-31.47,27.29-11.41,8.12-23.65,15.16-36.38,20.91-12.96,5.86-26.57,10.45-40.43,13.65-14.22,3.28-28.9,5.12-43.63,5.48-1.79,.04-3.59,.06-5.38,.06Z"/></g><g><path class="cls-4" d="M168.03,81.89c.44,17.81-2.63,35.17-9.11,51.6-3.11,7.9-7.02,15.54-11.61,22.71-4.55,7.1-9.81,13.8-15.63,19.92-5.82,6.12-12.26,11.7-19.13,16.59-6.94,4.94-14.37,9.21-22.11,12.71-16.09,7.28-33.28,11.19-51.09,11.63-17.81,.44-35.17-2.63-51.6-9.11-7.9-3.11-15.54-7.02-22.71-11.61-7.1-4.55-13.8-9.81-19.92-15.63-6.12-5.82-11.7-12.26-16.59-19.13-4.94-6.94-9.21-14.37-12.71-22.11-7.28-16.09-11.19-33.28-11.63-51.09-.44-17.81,2.63-35.17,9.11-51.6,3.11-7.9,7.02-15.54,11.61-22.71,4.55-7.1,9.81-13.8,15.63-19.92,5.82-6.12,12.26-11.7,19.13-16.59,6.94-4.94,14.37-9.21,22.11-12.71,16.09-7.28,33.28-11.19,51.09-11.63,17.81-.44,35.17,2.63,51.6,9.11,7.9,3.11,15.54,7.02,22.71,11.61,7.1,4.55,13.8,9.81,19.92,15.63,6.12,5.82,11.7,12.26,16.59,19.13,4.94,6.94,9.21,14.37,12.71,22.11,7.28,16.09,11.19,33.28,11.63,51.09Zm-262.91,6.45c1.77,72.23,61.98,129.55,134.21,127.78,72.23-1.77,129.55-61.98,127.78-134.21C165.34,9.69,105.13-47.64,32.9-45.86c-72.23,1.77-129.55,61.98-127.78,134.21Z"/><path class="cls-4" d="M36.02,217.66c-16.72,0-33.01-3.09-48.48-9.19-7.93-3.13-15.61-7.05-22.8-11.66-7.13-4.57-13.86-9.85-20-15.7-6.14-5.85-11.75-12.31-16.66-19.21-4.96-6.97-9.26-14.44-12.77-22.2-7.31-16.17-11.24-33.43-11.68-51.31-.44-17.89,2.64-35.32,9.15-51.83,3.13-7.93,7.05-15.61,11.66-22.8C-71,6.62-65.72-.11-59.87-6.25c5.85-6.14,12.31-11.75,19.21-16.66,6.96-4.96,14.43-9.25,22.2-12.77,16.16-7.31,33.43-11.24,51.31-11.68,17.91-.42,35.32,2.64,51.83,9.15,7.93,3.13,15.6,7.05,22.8,11.66,7.13,4.57,13.86,9.85,20,15.69,6.14,5.85,11.75,12.31,16.66,19.21,4.96,6.97,9.25,14.44,12.77,22.2,7.31,16.16,11.24,33.43,11.68,51.31,.44,17.88-2.64,35.32-9.15,51.83-3.13,7.93-7.05,15.6-11.66,22.8-4.57,7.13-9.85,13.86-15.7,20-5.85,6.14-12.31,11.75-19.21,16.66-6.96,4.96-14.43,9.25-22.2,12.77-16.16,7.31-33.43,11.24-51.31,11.68-1.11,.03-2.23,.04-3.34,.04ZM-94.31,88.33c1.77,71.92,61.69,128.99,133.62,127.22,34.78-.85,67.19-15.24,91.24-40.51,24.06-25.27,36.83-58.34,35.98-93.12-.85-34.78-15.24-67.19-40.51-91.24-25.27-24.06-58.33-36.83-93.12-35.98C-1.87-44.44-34.27-30.05-58.33-4.79c-24.06,25.27-36.83,58.34-35.98,93.12Z"/></g><g><path class="cls-8" d="M450.23,90.38c.34,13.98-.72,27.98-3.17,41.62-2.38,13.29-6.1,26.4-11.06,38.97-4.86,12.33-10.97,24.27-18.14,35.46-7.1,11.09-15.31,21.56-24.41,31.11-9.09,9.55-19.14,18.27-29.87,25.9-10.83,7.71-22.45,14.39-34.53,19.85-12.3,5.56-25.22,9.92-38.38,12.95-13.5,3.11-27.44,4.86-41.42,5.2-13.98,.34-27.98-.72-41.62-3.17-13.29-2.38-26.4-6.1-38.97-11.06-12.33-4.86-24.27-10.97-35.46-18.14-11.09-7.1-21.56-15.31-31.11-24.41-9.55-9.09-18.27-19.14-25.9-29.87-7.71-10.83-14.39-22.45-19.85-34.53-5.56-12.3-9.92-25.22-12.95-38.38-3.11-13.5-4.86-27.44-5.2-41.42-.34-13.98,.72-27.98,3.17-41.62,2.38-13.29,6.1-26.4,11.06-38.97,4.86-12.33,10.97-24.27,18.14-35.46,7.1-11.09,15.31-21.56,24.41-31.11,9.09-9.55,19.14-18.27,29.87-25.9,10.83-7.71,22.45-14.39,34.53-19.85,12.3-5.56,25.22-9.92,38.38-12.95,13.5-3.11,27.44-4.86,41.42-5.2,13.98-.34,27.98,.72,41.62,3.17,13.29,2.38,26.4,6.1,38.97,11.06,12.33,4.86,24.27,10.97,35.46,18.14,11.09,7.1,21.56,15.31,31.11,24.41,9.55,9.09,18.27,19.14,25.9,29.87,7.71,10.83,14.39,22.45,19.85,34.53,5.56,12.3,9.92,25.22,12.95,38.38,3.11,13.5,4.86,27.44,5.2,41.42ZM39.12,100.47c2.78,113.09,97.04,202.84,210.13,200.06,113.09-2.78,202.84-97.04,200.06-210.13-2.78-113.09-97.04-202.84-210.13-200.06C126.09-106.89,36.34-12.62,39.12,100.47Z"/><path class="cls-8" d="M244.16,302.08c-12.3,0-24.59-1.09-36.61-3.24-13.33-2.39-26.47-6.12-39.08-11.09-12.37-4.88-24.33-10.99-35.56-18.19-11.12-7.12-21.62-15.36-31.19-24.48-9.58-9.12-18.32-19.19-25.98-29.95-7.73-10.86-14.43-22.51-19.91-34.63-5.58-12.34-9.95-25.29-12.99-38.48-3.12-13.55-4.88-27.52-5.22-41.53-.34-14.02,.73-28.06,3.18-41.74,2.39-13.33,6.12-26.48,11.09-39.08,4.88-12.37,11-24.34,18.19-35.56,7.12-11.12,15.35-21.61,24.47-31.19,9.12-9.58,19.2-18.32,29.96-25.98,10.86-7.73,22.51-14.43,34.62-19.91,12.34-5.58,25.29-9.95,38.48-12.99,13.54-3.12,27.51-4.87,41.53-5.22,14.02-.34,28.06,.72,41.74,3.18,13.33,2.39,26.48,6.12,39.08,11.09,12.37,4.88,24.34,11,35.56,18.19,11.12,7.12,21.62,15.36,31.19,24.47s18.32,19.2,25.98,29.95c7.73,10.86,14.43,22.51,19.91,34.63,5.58,12.34,9.95,25.29,12.99,38.48,3.12,13.54,4.88,27.51,5.22,41.53h0c.34,14.01-.72,28.06-3.17,41.74-2.39,13.33-6.12,26.48-11.09,39.08-4.88,12.37-11,24.33-18.19,35.56-7.12,11.12-15.36,21.62-24.47,31.19-9.12,9.58-19.2,18.32-29.95,25.98-10.86,7.73-22.51,14.43-34.63,19.91-12.34,5.58-25.29,9.95-38.48,12.99-13.54,3.12-27.51,4.87-41.53,5.22-1.71,.04-3.42,.06-5.13,.06Zm.17-411.24c-1.71,0-3.42,.02-5.13,.06-54.54,1.34-105.36,23.9-143.08,63.52C58.39-5.95,38.35,45.91,39.69,100.45c1.34,54.54,23.9,105.36,63.52,143.08,39.62,37.73,91.49,57.78,146.03,56.42,54.54-1.34,105.36-23.9,143.08-63.52,37.72-39.62,57.76-91.48,56.42-146.03-1.34-54.54-23.9-105.36-63.52-143.08-38.38-36.54-88.24-56.49-140.9-56.49Z"/></g><circle class="cls-6" cx="38.77" cy="87.13" r="4.1" transform="translate(-54.47 107.14) rotate(-78.12)"/><circle class="cls-6" cx="159.83" cy="40.16" r="2.56"/><circle class="cls-6" cx="119.03" cy="82.98" r="3.33" transform="translate(-23.41 55.36) rotate(-23.91)"/><circle class="cls-6" cx="48.51" cy="158.66" r="2.56"/><circle class="cls-6" cx="74.15" cy="211.04" r="4.1" transform="translate(-129.82 119.22) rotate(-46.41)"/><circle class="cls-6" cx="147.77" cy="154.57" r="4.1" transform="translate(-3.75 3.67) rotate(-1.41)"/><circle class="cls-6" cx="141.05" cy="87.12" r="3.33" transform="translate(-19.31 129.21) rotate(-46.41)"/></g></g><g><path class="cls-7" d="M246.13,75.02v3.99h-19.2v-25.6h18.69v3.99h-13.93v6.66h12.36v3.91h-12.36v7.06h14.44Z"/><path class="cls-7" d="M262.13,77.67c-2.08-1.13-3.72-2.7-4.9-4.7-1.18-2-1.77-4.25-1.77-6.77s.6-4.77,1.79-6.76c1.19-2,2.83-3.57,4.92-4.7,2.08-1.13,4.42-1.7,7-1.7,2.1,0,4.01,.37,5.74,1.1,1.73,.73,3.19,1.79,4.39,3.18l-3.07,2.89c-1.85-2-4.13-3-6.84-3-1.75,0-3.33,.38-4.72,1.15-1.39,.77-2.47,1.83-3.25,3.2-.78,1.37-1.17,2.91-1.17,4.64s.39,3.28,1.17,4.64c.78,1.37,1.87,2.43,3.25,3.2,1.39,.77,2.96,1.15,4.72,1.15,2.71,0,4.99-1.01,6.84-3.04l3.07,2.93c-1.19,1.39-2.66,2.45-4.41,3.18-1.74,.73-3.66,1.1-5.76,1.1-2.58,0-4.92-.57-7-1.7Z"/><path class="cls-7" d="M294.62,77.67c-2.1-1.13-3.74-2.71-4.94-4.72s-1.79-4.26-1.79-6.75,.6-4.74,1.79-6.75c1.19-2.01,2.84-3.58,4.94-4.72,2.1-1.13,4.45-1.7,7.06-1.7s4.96,.57,7.06,1.7c2.1,1.13,3.74,2.7,4.94,4.7,1.19,2,1.79,4.25,1.79,6.76s-.6,4.77-1.79,6.77c-1.2,2-2.84,3.56-4.94,4.7-2.1,1.13-4.45,1.7-7.06,1.7s-4.96-.57-7.06-1.7Zm11.66-3.62c1.37-.77,2.44-1.84,3.22-3.22,.78-1.38,1.17-2.92,1.17-4.63s-.39-3.25-1.17-4.62c-.78-1.38-1.85-2.45-3.22-3.22-1.37-.77-2.9-1.15-4.61-1.15s-3.24,.38-4.61,1.15c-1.37,.77-2.44,1.84-3.22,3.22s-1.17,2.92-1.17,4.62,.39,3.25,1.17,4.63c.78,1.38,1.85,2.45,3.22,3.22s2.9,1.15,4.61,1.15,3.24-.38,4.61-1.15Z"/><path class="cls-7" d="M328.57,78.53c-1.84-.56-3.3-1.3-4.37-2.23l1.65-3.69c1.05,.83,2.33,1.51,3.86,2.03,1.52,.52,3.05,.79,4.59,.79,1.9,0,3.32-.3,4.26-.91s1.41-1.41,1.41-2.41c0-.73-.26-1.33-.79-1.81-.53-.48-1.19-.85-1.99-1.12-.8-.27-1.9-.57-3.29-.92-1.95-.46-3.53-.93-4.74-1.39-1.21-.46-2.24-1.19-3.11-2.18-.87-.99-1.3-2.32-1.3-4,0-1.41,.38-2.7,1.15-3.86,.77-1.16,1.93-2.08,3.47-2.76,1.55-.68,3.44-1.02,5.69-1.02,1.56,0,3.1,.2,4.61,.59,1.51,.39,2.82,.95,3.91,1.68l-1.5,3.69c-1.12-.66-2.29-1.16-3.51-1.5-1.22-.34-2.4-.51-3.55-.51-1.88,0-3.27,.32-4.19,.95-.91,.63-1.37,1.47-1.37,2.52,0,.73,.26,1.33,.79,1.79,.52,.46,1.19,.83,1.99,1.1s1.9,.57,3.29,.91c1.9,.44,3.46,.9,4.68,1.37,1.22,.47,2.26,1.2,3.13,2.18s1.3,2.29,1.3,3.95c0,1.41-.38,2.69-1.15,3.84s-1.93,2.06-3.49,2.74-3.46,1.02-5.7,1.02c-1.97,0-3.88-.28-5.72-.84Z"/><path class="cls-7" d="M355.21,53.41h4.75v25.6h-4.75v-25.6Z"/><path class="cls-7" d="M374.94,78.53c-1.84-.56-3.3-1.3-4.37-2.23l1.64-3.69c1.05,.83,2.33,1.51,3.86,2.03,1.52,.52,3.05,.79,4.59,.79,1.9,0,3.32-.3,4.26-.91,.94-.61,1.41-1.41,1.41-2.41,0-.73-.26-1.33-.79-1.81-.52-.48-1.19-.85-1.99-1.12-.8-.27-1.9-.57-3.29-.92-1.95-.46-3.53-.93-4.73-1.39-1.21-.46-2.24-1.19-3.11-2.18-.87-.99-1.3-2.32-1.3-4,0-1.41,.38-2.7,1.15-3.86,.77-1.16,1.93-2.08,3.47-2.76,1.55-.68,3.44-1.02,5.69-1.02,1.56,0,3.1,.2,4.61,.59,1.51,.39,2.82,.95,3.91,1.68l-1.5,3.69c-1.12-.66-2.29-1.16-3.51-1.5-1.22-.34-2.4-.51-3.55-.51-1.88,0-3.27,.32-4.19,.95-.91,.63-1.37,1.47-1.37,2.52,0,.73,.26,1.33,.79,1.79,.52,.46,1.19,.83,1.99,1.1,.8,.27,1.9,.57,3.29,.91,1.9,.44,3.46,.9,4.68,1.37,1.22,.47,2.26,1.2,3.13,2.18s1.3,2.29,1.3,3.95c0,1.41-.38,2.69-1.15,3.84s-1.93,2.06-3.49,2.74c-1.56,.68-3.46,1.02-5.71,1.02-1.97,0-3.88-.28-5.72-.84Z"/><path class="cls-7" d="M406.77,57.43h-8.48v-4.02h21.72v4.02h-8.48v21.57h-4.75v-21.57Z"/><path class="cls-7" d="M448.64,75.02v3.99h-19.2v-25.6h18.69v3.99h-13.93v6.66h12.36v3.91h-12.36v7.06h14.45Z"/><path class="cls-7" d="M483.31,79l-.04-16.97-8.41,14.04h-2.12l-8.41-13.82v16.75h-4.53v-25.6h3.91l10.17,16.97,9.98-16.97h3.91l.04,25.6h-4.5Z"/><path class="cls-7" d="M517.17,73.08h-12.8l-2.52,5.92h-4.9l11.52-25.6h4.68l11.55,25.6h-4.97l-2.56-5.92Zm-1.57-3.73l-4.83-11.19-4.79,11.19h9.62Z"/><path class="cls-7" d="M549.75,53.41h11.19c2.73,0,5.16,.53,7.28,1.59s3.77,2.56,4.94,4.5c1.17,1.94,1.75,4.17,1.75,6.71s-.58,4.77-1.75,6.71c-1.17,1.94-2.82,3.44-4.94,4.5-2.12,1.06-4.55,1.59-7.28,1.59h-11.19v-25.6Zm10.97,21.58c1.88,0,3.53-.36,4.96-1.08,1.43-.72,2.52-1.74,3.29-3.07,.77-1.33,1.15-2.87,1.15-4.63s-.38-3.3-1.15-4.62-1.87-2.35-3.29-3.07c-1.43-.72-3.08-1.08-4.96-1.08h-6.22v17.55h6.22Z"/><path class="cls-7" d="M605,75.02v3.99h-19.2v-25.6h18.69v3.99h-13.93v6.66h12.36v3.91h-12.36v7.06h14.45Z"/><path class="cls-7" d="M229.15,122.41c-1.84-.56-3.3-1.3-4.37-2.23l1.65-3.69c1.05,.83,2.33,1.51,3.86,2.03,1.52,.52,3.05,.79,4.59,.79,1.9,0,3.32-.3,4.26-.91,.94-.61,1.41-1.41,1.41-2.41,0-.73-.26-1.33-.79-1.81-.52-.47-1.19-.85-1.99-1.12-.8-.27-1.9-.57-3.29-.91-1.95-.46-3.53-.93-4.74-1.39-1.21-.46-2.24-1.19-3.11-2.18-.87-.99-1.3-2.32-1.3-4,0-1.41,.38-2.7,1.15-3.86s1.93-2.08,3.47-2.76,3.44-1.02,5.69-1.02c1.56,0,3.1,.2,4.61,.58,1.51,.39,2.82,.95,3.91,1.68l-1.5,3.69c-1.12-.66-2.29-1.16-3.51-1.5-1.22-.34-2.4-.51-3.55-.51-1.88,0-3.27,.32-4.19,.95-.92,.63-1.37,1.47-1.37,2.52,0,.73,.26,1.33,.79,1.79,.52,.46,1.19,.83,1.99,1.1s1.9,.57,3.29,.91c1.9,.44,3.46,.9,4.68,1.37,1.22,.48,2.26,1.2,3.13,2.18,.86,.98,1.3,2.29,1.3,3.95,0,1.41-.38,2.69-1.15,3.84-.77,1.15-1.93,2.06-3.49,2.74-1.56,.68-3.46,1.02-5.7,1.02-1.97,0-3.88-.28-5.72-.84Z"/><path class="cls-7" d="M258.53,120.27c-1.97-1.99-2.96-4.83-2.96-8.54v-14.44h4.75v14.26c0,5.02,2.17,7.53,6.51,7.53s6.47-2.51,6.47-7.53v-14.26h4.68v14.44c0,3.71-.98,6.55-2.94,8.54s-4.71,2.98-8.25,2.98-6.29-.99-8.26-2.98Z"/><path class="cls-7" d="M311.99,111.9c.83,1.08,1.24,2.43,1.24,4.04,0,2.22-.85,3.93-2.56,5.14-1.71,1.21-4.19,1.81-7.46,1.81h-12.73v-25.6h11.99c3.02,0,5.35,.59,6.98,1.77s2.45,2.81,2.45,4.88c0,1.27-.29,2.39-.88,3.36-.58,.97-1.39,1.73-2.41,2.27,1.41,.46,2.54,1.24,3.36,2.32Zm-16.75-10.88v7.06h6.73c1.66,0,2.93-.3,3.82-.9,.89-.6,1.33-1.47,1.33-2.61s-.45-2.05-1.33-2.65c-.89-.6-2.16-.9-3.82-.9h-6.73Zm13.2,14.44c0-2.46-1.84-3.69-5.52-3.69h-7.68v7.39h7.68c3.68,0,5.52-1.23,5.52-3.69Z"/><path class="cls-7" d="M347.57,97.29l-11.15,25.6h-4.68l-11.19-25.6h5.16l8.52,19.75,8.59-19.75h4.75Z"/><path class="cls-7" d="M375.87,118.9v3.99h-19.2v-25.6h18.69v3.99h-13.93v6.66h12.36v3.91h-12.36v7.06h14.44Z"/><path class="cls-7" d="M409.77,97.29v25.6h-3.91l-14.12-17.33v17.33h-4.72v-25.6h3.91l14.12,17.33v-17.33h4.72Z"/><path class="cls-7" d="M427.34,121.55c-2.08-1.13-3.72-2.7-4.9-4.7-1.18-2-1.77-4.25-1.77-6.77s.6-4.77,1.79-6.76,2.83-3.57,4.92-4.7c2.08-1.13,4.42-1.7,7-1.7,2.1,0,4.01,.37,5.74,1.1,1.73,.73,3.19,1.79,4.39,3.18l-3.07,2.89c-1.85-2-4.13-3-6.84-3-1.75,0-3.33,.38-4.72,1.15-1.39,.77-2.47,1.83-3.25,3.2-.78,1.37-1.17,2.91-1.17,4.64s.39,3.28,1.17,4.64c.78,1.37,1.86,2.43,3.25,3.2,1.39,.77,2.96,1.15,4.72,1.15,2.71,0,4.99-1.01,6.84-3.04l3.07,2.92c-1.2,1.39-2.66,2.45-4.41,3.18-1.74,.73-3.66,1.1-5.76,1.1-2.58,0-4.92-.57-7-1.7Z"/><path class="cls-7" d="M454.93,97.29h4.75v25.6h-4.75v-25.6Z"/><path class="cls-7" d="M477.34,121.55c-2.1-1.13-3.74-2.71-4.94-4.72-1.2-2.01-1.79-4.26-1.79-6.75s.6-4.74,1.79-6.75c1.19-2.01,2.84-3.58,4.94-4.72,2.1-1.13,4.45-1.7,7.06-1.7s4.96,.57,7.06,1.7c2.1,1.13,3.74,2.7,4.94,4.7s1.79,4.25,1.79,6.76-.6,4.77-1.79,6.77-2.84,3.56-4.94,4.7c-2.1,1.13-4.45,1.7-7.06,1.7s-4.96-.57-7.06-1.7Zm11.67-3.62c1.36-.77,2.44-1.84,3.22-3.22,.78-1.38,1.17-2.92,1.17-4.63s-.39-3.25-1.17-4.62-1.85-2.45-3.22-3.22c-1.37-.77-2.9-1.15-4.61-1.15s-3.24,.38-4.61,1.15c-1.37,.77-2.44,1.84-3.22,3.22-.78,1.38-1.17,2.92-1.17,4.62s.39,3.25,1.17,4.63c.78,1.38,1.85,2.45,3.22,3.22,1.37,.77,2.9,1.15,4.61,1.15s3.24-.38,4.61-1.15Z"/><path class="cls-7" d="M531.83,97.29v25.6h-3.91l-14.12-17.33v17.33h-4.72v-25.6h3.91l14.11,17.33v-17.33h4.72Z"/><path class="cls-7" d="M563.75,118.9v3.99h-19.2v-25.6h18.69v3.99h-13.93v6.66h12.36v3.91h-12.36v7.06h14.44Z"/><path class="cls-7" d="M577.12,122.41c-1.84-.56-3.3-1.3-4.37-2.23l1.64-3.69c1.05,.83,2.33,1.51,3.86,2.03,1.52,.52,3.05,.79,4.59,.79,1.9,0,3.32-.3,4.26-.91,.94-.61,1.41-1.41,1.41-2.41,0-.73-.26-1.33-.79-1.81-.52-.47-1.19-.85-1.99-1.12-.8-.27-1.9-.57-3.29-.91-1.95-.46-3.53-.93-4.73-1.39-1.21-.46-2.24-1.19-3.11-2.18s-1.3-2.32-1.3-4c0-1.41,.38-2.7,1.15-3.86,.77-1.16,1.93-2.08,3.47-2.76,1.55-.68,3.44-1.02,5.69-1.02,1.56,0,3.1,.2,4.61,.58,1.51,.39,2.82,.95,3.91,1.68l-1.5,3.69c-1.12-.66-2.29-1.16-3.51-1.5-1.22-.34-2.4-.51-3.55-.51-1.88,0-3.27,.32-4.19,.95s-1.37,1.47-1.37,2.52c0,.73,.26,1.33,.79,1.79,.52,.46,1.19,.83,1.99,1.1,.8,.27,1.9,.57,3.29,.91,1.9,.44,3.46,.9,4.68,1.37s2.26,1.2,3.13,2.18c.87,.98,1.3,2.29,1.3,3.95,0,1.41-.38,2.69-1.15,3.84s-1.93,2.06-3.49,2.74c-1.56,.68-3.46,1.02-5.71,1.02-1.97,0-3.88-.28-5.72-.84Z"/><path class="cls-7" d="M226.94,141.17h11.19c2.73,0,5.16,.53,7.28,1.59,2.12,1.06,3.77,2.56,4.94,4.5,1.17,1.94,1.76,4.17,1.76,6.71s-.59,4.77-1.76,6.71c-1.17,1.94-2.82,3.44-4.94,4.5-2.12,1.06-4.55,1.59-7.28,1.59h-11.19v-25.6Zm10.97,21.57c1.88,0,3.53-.36,4.96-1.08,1.43-.72,2.52-1.74,3.29-3.07,.77-1.33,1.15-2.87,1.15-4.63s-.38-3.3-1.15-4.62c-.77-1.33-1.86-2.35-3.29-3.07-1.43-.72-3.08-1.08-4.96-1.08h-6.22v17.55h6.22Z"/><path class="cls-7" d="M282.19,162.78v3.99h-19.2v-25.6h18.69v3.99h-13.93v6.66h12.36v3.91h-12.36v7.06h14.44Z"/><path class="cls-7" d="M293.34,141.17h4.75v21.57h13.38v4.02h-18.14v-25.6Z"/><path class="cls-7" d="M356.24,162.78v3.99h-19.2v-25.6h18.69v3.99h-13.93v6.66h12.36v3.91h-12.36v7.06h14.45Z"/><path class="cls-7" d="M369.6,166.29c-1.84-.56-3.3-1.3-4.37-2.23l1.65-3.69c1.05,.83,2.33,1.51,3.86,2.03,1.52,.52,3.05,.79,4.59,.79,1.9,0,3.32-.3,4.26-.91,.94-.61,1.41-1.41,1.41-2.41,0-.73-.26-1.33-.79-1.81-.52-.47-1.19-.85-1.99-1.12-.8-.27-1.9-.57-3.29-.91-1.95-.46-3.53-.93-4.74-1.39-1.21-.46-2.24-1.19-3.11-2.18-.87-.99-1.3-2.32-1.3-4,0-1.41,.38-2.7,1.15-3.86s1.93-2.08,3.47-2.76,3.44-1.02,5.69-1.02c1.56,0,3.1,.2,4.61,.58,1.51,.39,2.82,.95,3.91,1.68l-1.5,3.69c-1.12-.66-2.29-1.16-3.51-1.5-1.22-.34-2.4-.51-3.55-.51-1.88,0-3.27,.32-4.19,.95-.92,.63-1.37,1.47-1.37,2.52,0,.73,.26,1.33,.79,1.79,.52,.46,1.19,.83,1.99,1.1s1.9,.57,3.29,.91c1.9,.44,3.46,.9,4.68,1.37,1.22,.48,2.26,1.2,3.13,2.18,.86,.98,1.3,2.29,1.3,3.95,0,1.41-.38,2.69-1.15,3.84-.77,1.15-1.93,2.06-3.49,2.74-1.56,.68-3.46,1.02-5.7,1.02-1.97,0-3.88-.28-5.72-.84Z"/><path class="cls-7" d="M401.43,145.19h-8.48v-4.02h21.72v4.02h-8.48v21.57h-4.75v-21.57Z"/><path class="cls-7" d="M440.71,160.84h-12.8l-2.52,5.92h-4.9l11.52-25.6h4.68l11.55,25.6h-4.97l-2.56-5.92Zm-1.57-3.73l-4.83-11.19-4.79,11.19h9.62Z"/><path class="cls-7" d="M457.34,141.17h11.19c2.73,0,5.16,.53,7.28,1.59,2.12,1.06,3.77,2.56,4.94,4.5,1.17,1.94,1.76,4.17,1.76,6.71s-.59,4.77-1.76,6.71c-1.17,1.94-2.82,3.44-4.94,4.5-2.12,1.06-4.55,1.59-7.28,1.59h-11.19v-25.6Zm10.97,21.57c1.88,0,3.53-.36,4.96-1.08,1.43-.72,2.52-1.74,3.29-3.07,.77-1.33,1.15-2.87,1.15-4.63s-.38-3.3-1.15-4.62c-.77-1.33-1.86-2.35-3.29-3.07-1.43-.72-3.08-1.08-4.96-1.08h-6.22v17.55h6.22Z"/><path class="cls-7" d="M498.3,165.43c-2.1-1.13-3.74-2.71-4.94-4.72-1.2-2.01-1.79-4.26-1.79-6.75s.6-4.74,1.79-6.75c1.19-2.01,2.84-3.58,4.94-4.72,2.1-1.13,4.45-1.7,7.06-1.7s4.96,.57,7.06,1.7c2.1,1.13,3.74,2.7,4.94,4.7,1.19,2,1.79,4.25,1.79,6.76s-.6,4.77-1.79,6.77c-1.2,2-2.84,3.56-4.94,4.7-2.1,1.13-4.45,1.7-7.06,1.7s-4.96-.57-7.06-1.7Zm11.67-3.62c1.37-.77,2.44-1.84,3.22-3.22,.78-1.38,1.17-2.92,1.17-4.63s-.39-3.25-1.17-4.62-1.85-2.45-3.22-3.22c-1.37-.77-2.9-1.15-4.61-1.15s-3.24,.38-4.61,1.15c-1.37,.77-2.44,1.84-3.22,3.22-.78,1.38-1.17,2.92-1.17,4.62s.39,3.25,1.17,4.63c.78,1.38,1.85,2.45,3.22,3.22,1.37,.77,2.9,1.15,4.61,1.15s3.24-.38,4.61-1.15Z"/></g></g></g></svg>